<svg version="1.0"
    xmlns="http://www.w3.org/2000/svg" width="512.000000pt" height="512.000000pt" viewBox="0 0 512.000000 512.000000" preserveAspectRatio="xMidYMid meet">

    <g transform="translate(0.000000,512.000000) scale(0.100000,-0.100000)" fill="#fff" stroke="none">
        <path d="M367 4822 l-297 -297 300 -300 300 -300 112 112 113 113 -105 105
-105 105 213 0 212 0 0 160 0 160 -212 0 -213 0 105 105 105 105 -115 115
-115 115 -298 -298z"/>
        <path d="M4340 5005 l-115 -115 105 -105 105 -105 -213 0 -212 0 0 -160 0
-160 212 0 213 0 -105 -105 -105 -105 113 -113 112 -112 300 300 300 300 -298
298 -297 297 -115 -115z"/>
        <path d="M2413 4820 c-131 -43 -252 -157 -305 -287 l-23 -58 -5 -865 -5 -865
-76 -6 c-273 -22 -527 -200 -649 -453 -75 -157 -73 -143 -77 -707 l-4 -505
320 -401 321 -401 0 -136 0 -136 165 0 165 0 0 188 0 187 -325 405 -324 405
-1 400 c0 436 3 464 58 575 33 67 129 165 198 202 57 31 152 58 201 58 l33 0
0 -565 0 -565 160 0 160 0 2 1564 c3 1563 3 1565 24 1592 39 53 71 69 134 69
63 0 95 -16 134 -69 21 -27 21 -38 24 -764 l2 -737 263 -72 c144 -39 263 -70
265 -68 9 8 82 291 78 301 -2 6 -17 15 -33 18 -15 4 -79 21 -140 38 l-113 30
0 627 c0 614 0 628 -21 690 -45 133 -158 252 -286 302 -84 32 -235 37 -320 9z"/>
        <path d="M1430 4520 l0 -160 160 0 160 0 0 160 0 160 -160 0 -160 0 0 -160z"/>
        <path d="M3370 4520 l0 -160 160 0 160 0 0 160 0 160 -160 0 -160 0 0 -160z"/>
        <path d="M3605 2878 c-21 -79 -40 -148 -42 -153 -3 -9 270 -90 301 -90 5 0 28
69 51 153 l42 152 -51 15 c-161 45 -236 65 -249 65 -9 0 -26 -46 -52 -142z"/>
        <path d="M4266 2842 c-19 -61 -76 -279 -76 -288 0 -6 46 -23 103 -38 56 -15
126 -34 155 -42 l52 -15 0 -716 0 -716 -245 -327 -245 -327 0 -186 0 -187 165
0 165 0 0 138 0 137 240 319 240 319 0 897 0 897 -207 56 c-115 31 -238 66
-275 76 -62 18 -68 18 -72 3z"/>
    </g>
</svg>
