<svg width="180" height="52" viewBox="0 0 180 52" fill="none" xmlns="http://www.w3.org/2000/svg">
<path d="M23.4165 37.004C21.8916 37.0346 21.8916 35.7773 21.8916 35.7773V26.2296H24.9211V13.2779H21.8916V0.5L0.9375 26.3523H7.97606V43.5974C9.5514 51.0086 16.4385 50.5588 16.4385 50.5588C21.7502 50.5588 24.9211 45.9894 24.9211 45.9894V35.8591C24.7292 37.0653 23.3963 36.9937 23.3963 36.9937L23.4165 37.004Z" fill="#FF1B23"/>
<path d="M126.695 0.428467L126.682 0.44088V0.428467H126.695Z" fill="#FF1B23"/>
<path d="M122.673 50.0784C123.41 49.373 123.632 48.6677 123.632 48.2077C123.632 47.0015 123.38 46.7561 122.451 46.0099C122.613 45.877 122.754 45.7032 122.875 45.509C123.178 45.0081 123.249 44.3845 123.067 43.8121C122.623 42.4219 121.784 41.3485 120.573 40.6227C119.472 39.9685 117.967 39.6414 115.988 39.6414C114.706 39.6414 113.625 39.8049 112.706 40.1423L112.777 26.3115H105.748L126.672 0.438721V13.186H129.702V26.1377H126.672V35.6853C126.672 35.6853 126.672 36.9529 128.177 36.912C128.177 36.912 129.51 36.9836 129.702 35.7773V45.9077C129.702 45.9077 127.611 48.9335 123.976 50.0784H122.673Z" fill="#FF1B23"/>
<path d="M98.3159 3.95508C96.4679 3.95508 94.9734 6.14266 94.9734 8.84135C94.9734 11.5401 96.4679 13.7276 98.3159 13.7276C100.164 13.7276 101.659 11.5401 101.659 8.84135C101.659 6.14266 100.164 3.95508 98.3159 3.95508Z" fill="#FF1B23"/>
<path d="M178.143 36.1658C176.578 37.8627 174.013 38.9872 171.105 38.9872C166.359 38.9872 162.521 36.0431 162.521 32.3733H178.659C178.659 32.3733 178.659 32.2506 178.659 32.1893C178.86 29.3986 178.568 26.7715 177.901 24.3999C177.235 22.059 176.184 19.9532 174.851 18.2154C172.347 14.9442 168.803 12.8895 164.834 12.6442C164.561 12.6442 164.299 12.6135 164.026 12.6135C161.37 12.6135 158.906 13.4006 156.765 14.7807C156.745 14.7807 156.725 14.8216 156.715 14.8216C155.321 13.6051 153.554 12.8589 151.605 12.8691C149.04 12.8691 146.738 14.1162 145.283 16.0585V13.186H131.287V49.7308H145.283V26.1786C146.192 27.4052 147.444 28.3253 148.878 28.8773C148.798 29.7155 148.747 30.5742 148.747 31.4533C148.747 42.3503 155.422 50.518 164.056 50.518H164.864C165.137 50.518 165.409 50.5486 165.692 50.5486H166.409C172.64 50.2317 177.012 45.7339 179.062 39.12V34.9493C178.79 35.3889 178.507 35.7978 178.143 36.1658ZM164.884 22.0385C166.187 22.0385 167.268 23.8785 167.268 26.1581C167.268 26.2808 167.268 26.4035 167.247 26.5261H162.521C162.521 26.4239 162.501 26.2808 162.501 26.1581C162.521 23.8785 163.582 22.0385 164.884 22.0385Z" fill="#FF1B23"/>
<path d="M94.61 15.0259C92.1258 15.0259 89.7627 14.3921 87.6421 13.2268V25.9433C85.7032 18.3073 79.725 12.7361 72.6359 12.7361C68.9803 12.7361 65.6075 14.2183 62.9516 16.6921C60.2957 19.125 58.3265 22.5495 57.4379 26.4851V13.2574H43.9364V35.7057C43.593 37.0244 42.0985 36.9017 42.0985 36.9017C40.3919 37.0755 40.2707 35.6035 40.2707 35.6035V13.2574H26.4763V43.5769C27.8295 50.8347 35.0296 50.569 35.0296 50.569C41.947 50.569 43.9364 45.2738 43.9364 45.2738V49.7818H57.4379V36.1657C57.4379 36.1963 57.4379 36.2475 57.448 36.2986C58.7103 41.9004 62.1235 46.4596 66.5769 48.6472V41.1644C66.5769 40.0399 67.4757 39.1199 68.5966 39.1199H71.6362C72.0906 39.1199 72.5046 39.2733 72.8379 39.5186C73.0802 39.4266 73.3327 39.3448 73.5953 39.2631C74.3223 39.0586 75.1201 38.9564 75.9179 38.9564C76.9984 38.9564 77.8972 39.1608 78.6747 39.6004C78.9878 39.7844 79.2201 39.9479 79.4119 40.1115C79.8058 40.4386 80.1491 40.8373 80.4319 41.3177C80.4622 41.3791 80.4924 41.4302 80.5227 41.4915C81.0378 40.868 81.6538 40.3364 82.3506 39.9275C83.5119 39.2119 84.9054 38.8439 86.5111 38.8439C88.0864 38.8439 89.48 39.1915 90.6413 39.8866C90.712 39.9377 90.7827 39.9991 90.8635 40.0502C90.8635 40.0399 90.8635 40.0399 90.8635 40.0399C91.2371 39.4982 91.8531 39.171 92.5196 39.171H95.5289C96.4075 39.171 97.1749 39.7435 97.4476 40.592L97.6395 41.1951L97.8111 40.6328C98.0636 39.7742 98.8513 39.171 99.7399 39.171H101.618V13.2063C99.4976 14.3819 97.1245 15.0463 94.61 15.0259ZM73.3125 35.4297C73.1105 35.6341 72.8682 35.7568 72.6359 35.7568C71.6059 35.7568 70.7778 33.743 70.7778 31.2385C70.7778 29.3985 71.2221 27.8038 71.8987 27.1189C72.1007 26.9145 72.3431 26.7918 72.5753 26.7918C73.5953 26.7918 74.4132 28.8056 74.4132 31.3101C74.4132 33.1501 73.9689 34.7243 73.3125 35.4297ZM87.6017 13.2063C87.6118 13.2165 87.632 13.2165 87.6421 13.2268V13.2063H87.6017Z" fill="#FF1B23"/>
<path d="M76.3622 11.9591L72.5753 6.31641L68.8086 11.9591C70.0103 11.6422 71.2726 11.4685 72.5753 11.4685C73.878 11.4685 75.1504 11.6422 76.3622 11.9591Z" fill="#FF1B23"/>
<path d="M78.2808 9.79221C78.5232 10.4055 77.6345 11.898 77.5739 11.9696C80.0379 10.5998 80.8761 9.19931 81.1689 8.38152C81.2396 8.16686 81.2699 8.01352 81.2901 7.9113C81.3204 7.71707 81.2901 7.61485 81.2901 7.61485C81.2901 6.36772 80.2298 5.35571 78.9069 5.35571C77.584 5.35571 76.5237 6.36772 76.5237 7.61485C76.5237 8.64731 77.2609 9.54687 78.2707 9.79221H78.2808Z" fill="#FF1B23"/>
<path d="M164.248 9.79221C164.49 10.4055 163.592 11.898 163.541 11.9696C166.005 10.5998 166.853 9.19931 167.136 8.38152C167.207 8.16686 167.237 8.01352 167.257 7.9113C167.288 7.71707 167.257 7.61485 167.257 7.61485C167.257 6.36772 166.197 5.35571 164.874 5.35571C163.551 5.35571 162.491 6.36772 162.491 7.61485C162.491 8.64731 163.228 9.54687 164.238 9.79221H164.248Z" fill="#FF1B23"/>
<path d="M79.2805 45.059V51.8569H75.8976V45.9075C75.8976 45.7746 75.8976 45.6315 75.8875 45.519C75.8471 45.0181 75.7057 44.6297 75.5037 44.3741C75.221 44.0674 74.8675 43.8937 74.4131 43.8937C74.1 43.8937 73.787 43.9754 73.4739 44.1288C73.1407 44.2821 72.8579 44.507 72.5954 44.783C72.3328 45.059 72.141 45.3759 71.9996 45.7337V51.8466H68.5964V41.1643H71.636V42.9941C71.9188 42.5648 72.2621 42.207 72.6863 41.9207C73.1003 41.6141 73.5951 41.3892 74.1404 41.2358C74.6756 41.0825 75.2916 41.0007 75.9177 41.0007C76.6347 41.0007 77.2103 41.1132 77.6648 41.3687C77.8465 41.471 77.998 41.5732 78.1394 41.6959C78.3716 41.8799 78.5433 42.1047 78.6847 42.3399C78.7655 42.4932 78.8362 42.6465 78.9069 42.8203C79.0179 43.0963 79.0987 43.3621 79.1492 43.6585C79.2199 44.1492 79.2805 44.6092 79.2805 45.059Z" fill="#3E5EEF"/>
<path d="M91.56 43.6485C91.0955 42.8204 90.4593 42.156 89.611 41.6449C88.7628 41.144 87.7227 40.8884 86.5109 40.8884C85.289 40.8884 84.2488 41.144 83.4006 41.6653C82.5422 42.1764 81.8959 42.8511 81.4415 43.6996C80.977 44.5276 80.7649 45.4578 80.7649 46.48C80.7649 46.7152 80.775 46.9503 80.8154 47.1854C80.8659 47.6454 80.977 48.0849 81.1486 48.5245C81.3809 49.1276 81.7444 49.6796 82.1989 50.1499C82.2292 50.1907 82.2594 50.2214 82.2897 50.2521C82.7745 50.7428 83.3905 51.1517 84.0973 51.4379C84.4205 51.5708 84.7739 51.673 85.1375 51.7445C85.5717 51.8263 86.0362 51.857 86.521 51.857C87.3389 51.857 88.0862 51.7445 88.7628 51.489C89.4394 51.2334 90.015 50.8961 90.5199 50.4668C90.6108 50.3952 90.6916 50.3134 90.7724 50.2316C91.1561 49.8636 91.459 49.4445 91.6711 48.9947L88.8941 48.2178C88.7224 48.6063 88.4396 48.9334 88.0155 49.1481C87.5914 49.3832 87.1168 49.4854 86.6219 49.4854C86.2382 49.4854 85.8646 49.4036 85.501 49.2299C85.1476 49.0663 84.8648 48.8312 84.6427 48.5041C84.4205 48.1872 84.2892 47.7987 84.2387 47.3387H92.1659C92.1861 47.2058 92.1962 47.0525 92.2164 46.8685C92.2366 46.6743 92.2467 46.4903 92.2467 46.3063C92.2164 45.3556 91.9943 44.456 91.56 43.6485ZM84.1377 45.3556C84.1882 44.9365 84.3195 44.5582 84.5215 44.2414C84.7234 43.9142 84.9961 43.6791 85.3394 43.4951C85.6727 43.3213 86.0463 43.2293 86.4705 43.2293C86.8744 43.2293 87.248 43.3111 87.5914 43.4951C87.9246 43.6689 88.1973 43.9142 88.3992 44.2414C88.6113 44.5582 88.7426 44.9365 88.7931 45.3556H84.1377Z" fill="#3E5EEF"/>
<path d="M110.383 41.2156L106.617 51.6935H103.638L102.012 46.2756L101.618 44.957L100.063 50.2317L99.6287 51.6935H96.6194L96.1044 50.2317L92.9133 41.2156H95.9226L98.114 48.085L100.134 41.2156H103.133L105.082 48.085L107.324 41.2156H110.383Z" fill="#3E5EEF"/>
<path d="M121.27 48.3609C121.27 48.9436 121.108 49.4751 120.775 49.9556C120.563 50.2623 120.29 50.5587 119.937 50.8245C119.038 51.5196 117.715 51.8569 115.968 51.8569C114.383 51.8569 113.12 51.5707 112.201 50.9983C111.272 50.4156 110.666 49.6387 110.384 48.6471L112.434 48.3711L113.474 48.228C113.605 48.7596 113.878 49.1685 114.282 49.4445C114.685 49.7205 115.241 49.8636 115.968 49.8636C116.766 49.8636 117.362 49.7307 117.765 49.4751C118.038 49.2911 118.179 49.0458 118.179 48.7391C118.179 48.5245 118.099 48.3507 117.957 48.2178C117.806 48.0849 117.462 47.9622 116.927 47.8498C114.696 47.4102 113.201 47.0013 112.434 46.6333C112.343 46.5822 112.262 46.5413 112.191 46.5004C111.272 45.9382 110.808 45.1613 110.808 44.1595C110.808 43.2497 111.212 42.4933 112.009 41.8799C112.141 41.7777 112.282 41.6857 112.434 41.6142C113.221 41.1644 114.312 40.9497 115.715 40.9497C117.311 40.9497 118.493 41.1848 119.27 41.6551C120.048 42.1151 120.583 42.8 120.876 43.7097L117.967 44.1902C117.846 43.7915 117.604 43.4746 117.261 43.26C116.907 43.0453 116.412 42.9328 115.776 42.9328C114.958 42.9328 114.372 43.0351 114.029 43.2395C113.787 43.3826 113.676 43.5768 113.676 43.8017C113.676 43.996 113.777 44.1697 113.979 44.3026C114.261 44.4866 115.221 44.7422 116.867 45.0795C118.503 45.4169 119.654 45.8258 120.3 46.3062C120.946 46.7969 121.27 47.4818 121.27 48.3609Z" fill="#3E5EEF"/>
</svg>
